<svg width="532" height="144" viewBox="0 0 532 144" fill="none" xmlns="http://www.w3.org/2000/svg">
<path d="M0.840915 11.0236C0.634374 10.6937 0.442587 10.2437 0.265552 9.67384C0.0885173 9.10391 0 8.50399 0 7.87407C0 6.70421 0.250799 5.86432 0.752398 5.35438C1.2835 4.84444 1.96213 4.58948 2.7883 4.58948H22.0851C22.2916 4.91943 22.4834 5.36938 22.6604 5.93931C22.8375 6.50924 22.926 7.10916 22.926 7.73908C22.926 8.90894 22.6604 9.74883 22.1293 10.2587C21.6277 10.7687 20.9639 11.0236 20.1377 11.0236H15.225V31.811C14.9004 31.901 14.3841 31.991 13.6759 32.081C12.9973 32.171 12.3187 32.216 11.64 32.216C10.9614 32.216 10.3565 32.156 9.82543 32.036C9.32383 31.946 8.89599 31.766 8.54193 31.4961C8.18786 31.2261 7.9223 30.8511 7.74527 30.3712C7.56823 29.8913 7.47972 29.2613 7.47972 28.4814V11.0236H0.840915Z" fill="#3077C6"/>
<path d="M31.8497 31.946C31.5546 32.036 31.0825 32.126 30.4334 32.216C29.8138 32.306 29.1646 32.351 28.486 32.351C27.8369 32.351 27.2468 32.306 26.7156 32.216C26.214 32.126 25.7862 31.946 25.4321 31.676C25.0781 31.4061 24.7978 31.0461 24.5912 30.5962C24.4142 30.1162 24.3257 29.5013 24.3257 28.7514V15.2531C24.3257 14.5632 24.4437 13.9783 24.6797 13.4983C24.9453 12.9884 25.3141 12.5384 25.7862 12.1485C26.2583 11.7585 26.8337 11.4136 27.5123 11.1136C28.2204 10.7837 28.9728 10.4987 29.7695 10.2587C30.5662 10.0187 31.3923 9.83873 32.248 9.71874C33.1036 9.56876 33.9593 9.49377 34.815 9.49377C36.2313 9.49377 37.3525 9.77874 38.1786 10.3487C39.0048 10.8886 39.4179 11.7885 39.4179 13.0484C39.4179 13.4683 39.3589 13.8883 39.2409 14.3082C39.1228 14.6982 38.9753 15.0581 38.7983 15.3881C38.1786 15.3881 37.5443 15.4181 36.8951 15.4781C36.246 15.5381 35.6116 15.628 34.992 15.748C34.3724 15.868 33.7823 16.003 33.2217 16.153C32.6906 16.273 32.2332 16.4229 31.8497 16.6029V31.946Z" fill="#3077C6"/>
<path d="M42.3448 4.04949C42.3448 2.90964 42.7137 1.94976 43.4513 1.16985C44.2185 0.389951 45.2217 0 46.4609 0C47.7001 0 48.6886 0.389951 49.4262 1.16985C50.1934 1.94976 50.577 2.90964 50.577 4.04949C50.577 5.18935 50.1934 6.14923 49.4262 6.92913C48.6886 7.70904 47.7001 8.09899 46.4609 8.09899C45.2217 8.09899 44.2185 7.70904 43.4513 6.92913C42.7137 6.14923 42.3448 5.18935 42.3448 4.04949ZM50.2229 31.946C49.8983 32.006 49.4115 32.081 48.7623 32.171C48.1427 32.291 47.5083 32.351 46.8592 32.351C46.2101 32.351 45.62 32.306 45.0889 32.216C44.5873 32.126 44.1594 31.946 43.8054 31.676C43.4513 31.4061 43.171 31.0461 42.9645 30.5962C42.7874 30.1162 42.6989 29.5013 42.6989 28.7514V10.4387C43.0235 10.3787 43.4956 10.3037 44.1152 10.2137C44.7643 10.0937 45.4134 10.0337 46.0626 10.0337C46.7117 10.0337 47.2871 10.0787 47.7887 10.1687C48.3198 10.2587 48.7623 10.4387 49.1164 10.7087C49.4705 10.9786 49.736 11.3536 49.9131 11.8335C50.1196 12.2835 50.2229 12.8834 50.2229 13.6333V31.946Z" fill="#3077C6"/>
<path d="M64.8825 9.44885C66.6529 9.44885 68.2905 9.68882 69.7952 10.1687C71.3296 10.6187 72.6426 11.3236 73.7343 12.2835C74.826 13.2433 75.6816 14.4582 76.3013 15.928C76.9209 17.3678 77.2307 19.0926 77.2307 21.1024C77.2307 23.0221 76.9652 24.7019 76.4341 26.1417C75.9029 27.5816 75.1505 28.7964 74.1769 29.7863C73.2032 30.7462 72.0229 31.4661 70.6362 31.946C69.2789 32.4259 67.7593 32.6659 66.0775 32.6659C64.8088 32.6659 63.6285 32.4709 62.5368 32.081V39.5501C62.2418 39.64 61.7697 39.73 61.1205 39.82C60.4714 39.94 59.8075 40 59.1289 40C58.4798 40 57.8897 39.955 57.3586 39.865C56.857 39.775 56.4291 39.5951 56.0751 39.3251C55.721 39.0551 55.4554 38.6802 55.2784 38.2002C55.1014 37.7503 55.0128 37.1504 55.0128 36.4004V14.8031C55.0128 13.9933 55.1751 13.3333 55.4997 12.8234C55.8538 12.3135 56.3259 11.8485 56.916 11.4286C57.8307 10.8286 58.9666 10.3487 60.3239 9.98878C61.6812 9.62883 63.2007 9.44885 64.8825 9.44885ZM64.9711 26.6367C68.0101 26.6367 69.5297 24.7919 69.5297 21.1024C69.5297 19.1826 69.1461 17.7578 68.379 16.8279C67.6413 15.898 66.5644 15.4331 65.1481 15.4331C64.5875 15.4331 64.0859 15.5081 63.6433 15.658C63.2007 15.778 62.8171 15.928 62.4926 16.108V26.0067C62.8466 26.1867 63.2302 26.3367 63.6433 26.4567C64.0564 26.5767 64.499 26.6367 64.9711 26.6367Z" fill="#3077C6"/>
<path d="M105.466 31.811C105.141 31.901 104.625 31.991 103.917 32.081C103.238 32.171 102.56 32.216 101.881 32.216C101.202 32.216 100.598 32.156 100.066 32.036C99.5649 31.946 99.137 31.766 98.783 31.4961C98.4289 31.2261 98.1633 30.8511 97.9863 30.3712C97.8093 29.8913 97.7207 29.2613 97.7207 28.4814V21.4623H89.2231V31.811C88.8985 31.901 88.3822 31.991 87.674 32.081C86.9954 32.171 86.3168 32.216 85.6381 32.216C84.9595 32.216 84.3546 32.156 83.8235 32.036C83.3219 31.946 82.8941 31.766 82.54 31.4961C82.1859 31.2261 81.9204 30.8511 81.7434 30.3712C81.5663 29.8913 81.4778 29.2613 81.4778 28.4814V4.72441C81.8024 4.66442 82.3187 4.58943 83.0269 4.49944C83.735 4.37945 84.4136 4.31946 85.0628 4.31946C85.7414 4.31946 86.3315 4.37945 86.8331 4.49944C87.3642 4.58943 87.8068 4.7694 88.1609 5.03937C88.5149 5.30934 88.7805 5.68429 88.9575 6.16423C89.1346 6.64417 89.2231 7.27409 89.2231 8.05399V15.2531H97.7207V4.72441C98.0453 4.66442 98.5617 4.58943 99.2698 4.49944C99.9779 4.37945 100.657 4.31946 101.306 4.31946C101.984 4.31946 102.574 4.37945 103.076 4.49944C103.607 4.58943 104.05 4.7694 104.404 5.03937C104.758 5.30934 105.023 5.68429 105.2 6.16423C105.377 6.64417 105.466 7.27409 105.466 8.05399V31.811Z" fill="#3077C6"/>
<path d="M132.901 21.0574C132.901 22.9171 132.621 24.5819 132.06 26.0517C131.499 27.4916 130.703 28.7064 129.67 29.6963C128.667 30.6862 127.457 31.4361 126.041 31.946C124.624 32.4559 123.046 32.7109 121.305 32.7109C119.564 32.7109 117.986 32.4409 116.569 31.901C115.153 31.3611 113.929 30.5962 112.896 29.6063C111.893 28.5864 111.111 27.3566 110.55 25.9168C109.99 24.4769 109.709 22.8571 109.709 21.0574C109.709 19.2876 109.99 17.6828 110.55 16.243C111.111 14.8031 111.893 13.5883 112.896 12.5984C113.929 11.5786 115.153 10.7986 116.569 10.2587C117.986 9.71881 119.564 9.44885 121.305 9.44885C123.046 9.44885 124.624 9.73381 126.041 10.3037C127.457 10.8436 128.667 11.6235 129.67 12.6434C130.703 13.6333 131.499 14.8481 132.06 16.288C132.621 17.7278 132.901 19.3176 132.901 21.0574ZM117.41 21.0574C117.41 22.8871 117.75 24.297 118.428 25.2868C119.136 26.2467 120.11 26.7267 121.349 26.7267C122.589 26.7267 123.533 26.2317 124.182 25.2418C124.861 24.252 125.2 22.8571 125.2 21.0574C125.2 19.2576 124.861 17.8778 124.182 16.9179C123.503 15.928 122.544 15.4331 121.305 15.4331C120.066 15.4331 119.107 15.928 118.428 16.9179C117.75 17.8778 117.41 19.2576 117.41 21.0574Z" fill="#3077C6"/>
<path d="M136.572 10.4387C136.867 10.3487 137.324 10.2587 137.944 10.1687C138.593 10.0787 139.257 10.0337 139.935 10.0337C140.584 10.0337 141.16 10.0787 141.661 10.1687C142.192 10.2587 142.635 10.4387 142.989 10.7087C143.343 10.9786 143.609 11.3536 143.786 11.8335C143.992 12.2835 144.096 12.8834 144.096 13.6333V23.3071C144.096 24.5369 144.391 25.4218 144.981 25.9618C145.571 26.4717 146.427 26.7267 147.548 26.7267C148.226 26.7267 148.772 26.6667 149.185 26.5467C149.628 26.4267 149.967 26.3067 150.203 26.1867V10.4387C150.498 10.3487 150.956 10.2587 151.575 10.1687C152.224 10.0787 152.888 10.0337 153.567 10.0337C154.216 10.0337 154.791 10.0787 155.293 10.1687C155.824 10.2587 156.267 10.4387 156.621 10.7087C156.975 10.9786 157.24 11.3536 157.417 11.8335C157.624 12.2835 157.727 12.8834 157.727 13.6333V27.3116C157.727 28.8114 157.108 29.9363 155.868 30.6862C154.836 31.3461 153.596 31.841 152.151 32.171C150.734 32.5309 149.185 32.7109 147.503 32.7109C145.91 32.7109 144.435 32.5309 143.078 32.171C141.75 31.811 140.599 31.2561 139.625 30.5062C138.652 29.7563 137.899 28.7964 137.368 27.6265C136.837 26.4267 136.572 24.9869 136.572 23.3071V10.4387Z" fill="#3077C6"/>
<path d="M180.478 25.4668C180.478 27.7465 179.637 29.5313 177.955 30.8211C176.273 32.111 173.794 32.7559 170.519 32.7559C169.28 32.7559 168.129 32.6659 167.067 32.4859C166.005 32.306 165.09 32.036 164.323 31.676C163.586 31.2861 162.995 30.8061 162.553 30.2362C162.14 29.6663 161.933 28.9914 161.933 28.2115C161.933 27.4916 162.081 26.8916 162.376 26.4117C162.671 25.9018 163.025 25.4818 163.438 25.1519C164.294 25.6318 165.267 26.0667 166.359 26.4567C167.48 26.8166 168.764 26.9966 170.21 26.9966C171.124 26.9966 171.818 26.8616 172.29 26.5917C172.791 26.3217 173.042 25.9618 173.042 25.5118C173.042 25.0919 172.865 24.7619 172.511 24.5219C172.157 24.282 171.567 24.087 170.741 23.937L169.413 23.667C166.846 23.1571 164.928 22.3622 163.659 21.2823C162.42 20.1725 161.8 18.5977 161.8 16.5579C161.8 15.4481 162.036 14.4432 162.509 13.5433C162.981 12.6434 163.645 11.8935 164.5 11.2936C165.356 10.6937 166.374 10.2287 167.554 9.89875C168.764 9.56879 170.092 9.40381 171.537 9.40381C172.629 9.40381 173.647 9.4938 174.591 9.67378C175.565 9.82376 176.406 10.0637 177.114 10.3937C177.822 10.7237 178.383 11.1586 178.796 11.6985C179.209 12.2085 179.415 12.8234 179.415 13.5433C179.415 14.2332 179.283 14.8331 179.017 15.3431C178.781 15.823 178.471 16.228 178.088 16.5579C177.852 16.4079 177.497 16.258 177.025 16.108C176.553 15.928 176.037 15.778 175.476 15.658C174.916 15.5081 174.34 15.3881 173.75 15.2981C173.19 15.2081 172.673 15.1631 172.201 15.1631C171.227 15.1631 170.475 15.2831 169.944 15.5231C169.413 15.733 169.147 16.078 169.147 16.5579C169.147 16.8879 169.295 17.1579 169.59 17.3678C169.885 17.5778 170.446 17.7728 171.272 17.9528L172.644 18.2677C175.476 18.9276 177.483 19.8425 178.663 21.0124C179.873 22.1522 180.478 23.637 180.478 25.4668Z" fill="#3077C6"/>
<path d="M195.706 32.7109C193.965 32.7109 192.342 32.4709 190.837 31.991C189.362 31.4811 188.064 30.7312 186.942 29.7413C185.851 28.7514 184.98 27.5066 184.331 26.0067C183.712 24.5069 183.402 22.7522 183.402 20.7424C183.402 18.7627 183.712 17.0679 184.331 15.658C184.98 14.2182 185.821 13.0484 186.854 12.1485C187.887 11.2186 189.067 10.5437 190.395 10.1237C191.722 9.67382 193.08 9.44885 194.466 9.44885C196.03 9.44885 197.447 9.68882 198.715 10.1687C200.014 10.6487 201.12 11.3086 202.035 12.1485C202.979 12.9884 203.702 13.9933 204.203 15.1631C204.734 16.333 205 17.6078 205 18.9876C205 20.0075 204.72 20.7874 204.159 21.3273C203.598 21.8673 202.817 22.2122 201.813 22.3622L190.881 24.027C191.206 25.0169 191.87 25.7668 192.873 26.2767C193.876 26.7567 195.027 26.9966 196.325 26.9966C197.535 26.9966 198.671 26.8466 199.733 26.5467C200.825 26.2167 201.71 25.8418 202.389 25.4218C202.861 25.7218 203.259 26.1417 203.584 26.6817C203.908 27.2216 204.071 27.7915 204.071 28.3915C204.071 29.7413 203.451 30.7462 202.212 31.4061C201.268 31.916 200.205 32.261 199.025 32.4409C197.845 32.6209 196.738 32.7109 195.706 32.7109ZM194.466 15.0281C193.758 15.0281 193.139 15.1481 192.608 15.3881C192.106 15.628 191.693 15.943 191.368 16.333C191.044 16.6929 190.793 17.1129 190.616 17.5928C190.468 18.0427 190.38 18.5077 190.35 18.9876L197.919 17.7278C197.83 17.1279 197.506 16.5279 196.945 15.928C196.384 15.3281 195.558 15.0281 194.466 15.0281Z" fill="#3077C6"/>
<path d="M232.317 15.3174V8.68258H225.683L221 4L216.317 8.68258H209.683V15.3174L205 20L209.683 24.6826V31.3174H216.317L221 36L225.683 31.3174H232.317V24.6826L237 20L232.317 15.3174ZM221 28.4881C219.741 28.4881 218.538 28.2051 217.463 27.71C220.377 26.366 222.415 23.4235 222.415 20C222.415 16.5765 220.377 13.634 217.463 12.29C218.538 11.7949 219.741 11.5119 221 11.5119C225.683 11.5119 229.488 15.3174 229.488 20C229.488 24.6826 225.683 28.4881 221 28.4881Z" fill="white"/>
<path d="M407 39.9999H282C279.25 39.9999 277 37.75 277 35V4.99999C277 2.25 279.25 0 282 0H407C409.75 0 412 2.25 412 4.99999V35C412 37.75 409.75 39.9999 407 39.9999Z" fill="black"/>
<path d="M407 0.799999C409.32 0.799999 411.2 2.68 411.2 4.99999V35C411.2 37.32 409.32 39.1999 407 39.1999H282C279.68 39.1999 277.8 37.32 277.8 35V4.99999C277.8 2.68 279.68 0.799999 282 0.799999H407ZM407 0H282C279.25 0 277 2.25 277 4.99999V35C277 37.75 279.25 39.9999 282 39.9999H407C409.75 39.9999 412 37.75 412 35V4.99999C412 2.25 409.75 0 407 0Z" fill="#A6A6A6"/>
<path d="M324.07 10.37C324.07 11.2101 323.82 11.8801 323.32 12.3701C322.76 12.9601 322.02 13.2601 321.12 13.2601C320.25 13.2601 319.52 12.9601 318.91 12.3601C318.3 11.7601 318 11.01 318 10.13C318 9.24003 318.3 8.50002 318.91 7.90001C319.52 7.3 320.25 7 321.12 7C321.55 7 321.96 7.08 322.35 7.25C322.74 7.42001 323.05 7.64001 323.29 7.92001L322.76 8.45002C322.36 7.98001 321.82 7.74001 321.12 7.74001C320.49 7.74001 319.94 7.96001 319.48 8.41002C319.02 8.85002 318.79 9.43003 318.79 10.14C318.79 10.85 319.02 11.4301 319.48 11.8701C319.94 12.3101 320.49 12.5401 321.12 12.5401C321.79 12.5401 322.35 12.3201 322.8 11.8701C323.09 11.5801 323.26 11.1701 323.3 10.65H321.12V9.93003H324.03C324.05 10.08 324.07 10.23 324.07 10.37Z" fill="white" stroke="white" stroke-width="0.2" stroke-miterlimit="10"/>
<path d="M328.5 7.74H325.77V9.64001H328.23V10.36H325.77V12.26H328.5V13H325V7H328.5V7.74Z" fill="white" stroke="white" stroke-width="0.2" stroke-miterlimit="10"/>
<path d="M331.45 13H330.68V7.74H329V7H333.12V7.74H331.44V13H331.45Z" fill="white" stroke="white" stroke-width="0.2" stroke-miterlimit="10"/>
<path d="M337 13V7H337.77V13H337Z" fill="white" stroke="white" stroke-width="0.2" stroke-miterlimit="10"/>
<path d="M340.45 13H339.68V7.74H338V7H342.12V7.74H340.44V13H340.45Z" fill="white" stroke="white" stroke-width="0.2" stroke-miterlimit="10"/>
<path d="M350.28 12.3501C349.69 12.9601 348.96 13.2601 348.08 13.2601C347.2 13.2601 346.47 12.9601 345.88 12.3501C345.29 11.7401 345 11 345 10.13C345 9.26003 345.29 8.51002 345.88 7.91001C346.47 7.3 347.2 7 348.08 7C348.95 7 349.68 7.3 350.28 7.91001C350.87 8.52002 351.17 9.26003 351.17 10.13C351.16 11.01 350.87 11.7501 350.28 12.3501ZM346.45 11.8501C346.89 12.3001 347.44 12.5201 348.08 12.5201C348.72 12.5201 349.27 12.3001 349.71 11.8501C350.15 11.4001 350.38 10.83 350.38 10.13C350.38 9.43003 350.16 8.86002 349.71 8.41002C349.27 7.96001 348.72 7.74001 348.08 7.74001C347.44 7.74001 346.89 7.96001 346.45 8.41002C346.01 8.86002 345.78 9.43003 345.78 10.13C345.78 10.83 346.01 11.4001 346.45 11.8501Z" fill="white" stroke="white" stroke-width="0.2" stroke-miterlimit="10"/>
<path d="M352 13V7H352.94L355.86 11.67H355.89L355.86 10.51V7H356.63V13H355.83L352.78 8.11H352.75L352.78 9.27001V13H352Z" fill="white" stroke="white" stroke-width="0.2" stroke-miterlimit="10"/>
<path d="M345.1 21.7C342.75 21.7 340.83 23.49 340.83 25.9501C340.83 28.4001 342.75 30.2001 345.1 30.2001C347.45 30.2001 349.37 28.4001 349.37 25.9501C349.37 23.49 347.45 21.7 345.1 21.7ZM345.1 28.5301C343.81 28.5301 342.7 27.4701 342.7 25.9501C342.7 24.42 343.81 23.37 345.1 23.37C346.39 23.37 347.5 24.42 347.5 25.9501C347.5 27.4701 346.38 28.5301 345.1 28.5301ZM335.78 21.7C333.43 21.7 331.51 23.49 331.51 25.9501C331.51 28.4001 333.43 30.2001 335.78 30.2001C338.13 30.2001 340.05 28.4001 340.05 25.9501C340.05 23.49 338.13 21.7 335.78 21.7ZM335.78 28.5301C334.49 28.5301 333.38 27.4701 333.38 25.9501C333.38 24.42 334.49 23.37 335.78 23.37C337.07 23.37 338.18 24.42 338.18 25.9501C338.18 27.4701 337.07 28.5301 335.78 28.5301ZM324.7 23.01V24.81H329.02C328.89 25.8201 328.55 26.5701 328.04 27.0801C327.41 27.7101 326.43 28.4001 324.71 28.4001C322.05 28.4001 319.97 26.2601 319.97 23.6C319.97 20.94 322.05 18.8 324.71 18.8C326.14 18.8 327.19 19.36 327.96 20.09L329.23 18.82C328.15 17.79 326.72 17 324.7 17C321.06 17 318 19.96 318 23.61C318 27.2501 321.06 30.2201 324.7 30.2201C326.67 30.2201 328.15 29.5801 329.31 28.3701C330.5 27.1801 330.87 25.5001 330.87 24.15C330.87 23.73 330.84 23.34 330.77 23.02H324.7V23.01ZM370.01 24.41C369.66 23.46 368.58 21.7 366.37 21.7C364.18 21.7 362.36 23.42 362.36 25.9501C362.36 28.3301 364.16 30.2001 366.58 30.2001C368.53 30.2001 369.66 29.0101 370.12 28.3201L368.67 27.3501C368.19 28.0601 367.53 28.5301 366.58 28.5301C365.63 28.5301 364.95 28.0901 364.52 27.2401L370.21 24.89L370.01 24.41ZM364.21 25.8301C364.16 24.19 365.48 23.35 366.43 23.35C367.17 23.35 367.8 23.72 368.01 24.25L364.21 25.8301ZM359.59 29.9501H361.46V17.45H359.59V29.9501ZM356.53 22.65H356.46C356.04 22.15 355.24 21.7 354.22 21.7C352.09 21.7 350.14 23.57 350.14 25.9701C350.14 28.3501 352.09 30.2101 354.22 30.2101C355.23 30.2101 356.04 29.7601 356.46 29.2401H356.52V29.8501C356.52 31.4801 355.65 32.3501 354.25 32.3501C353.11 32.3501 352.4 31.5301 352.11 30.8401L350.48 31.5201C350.95 32.6501 352.19 34.0301 354.25 34.0301C356.44 34.0301 358.29 32.7401 358.29 29.6001V21.96H356.52V22.65H356.53ZM354.38 28.5301C353.09 28.5301 352.01 27.4501 352.01 25.9701C352.01 24.47 353.09 23.38 354.38 23.38C355.65 23.38 356.65 24.48 356.65 25.9701C356.66 27.4501 355.66 28.5301 354.38 28.5301ZM378.77 17.45H374.3V29.9501H376.17V25.21H378.78C380.85 25.21 382.88 23.71 382.88 21.33C382.88 18.95 380.83 17.45 378.77 17.45ZM378.81 23.47H376.16V19.18H378.81C380.21 19.18 381 20.34 381 21.32C381 22.3 380.21 23.47 378.81 23.47ZM390.35 21.68C389 21.68 387.6 22.28 387.02 23.59L388.68 24.28C389.03 23.59 389.69 23.36 390.38 23.36C391.34 23.36 392.33 23.94 392.34 24.97V25.1C392 24.91 391.28 24.62 390.39 24.62C388.6 24.62 386.79 25.6001 386.79 27.4301C386.79 29.1001 388.25 30.1801 389.89 30.1801C391.14 30.1801 391.84 29.6201 392.27 28.9601H392.33V29.9301H394.13V25.14C394.14 22.92 392.48 21.68 390.35 21.68ZM390.12 28.5301C389.51 28.5301 388.66 28.2201 388.66 27.4701C388.66 26.5101 389.72 26.1401 390.64 26.1401C391.46 26.1401 391.85 26.3201 392.34 26.5601C392.2 27.7101 391.2 28.5301 390.12 28.5301ZM400.7 21.95L398.56 27.3701H398.5L396.28 21.95H394.27L397.6 29.5301L395.7 33.7401H397.65L402.78 21.95H400.7ZM383.9 29.9501H385.77V17.45H383.9V29.9501Z" fill="white"/>
<path d="M287.46 7.07C287.17 7.38 287 7.86 287 8.47V30.5899C287 31.2099 287.17 31.6899 287.46 31.9899L287.53 32.0599L299.92 19.68V19.53V19.38L287.53 7L287.46 7.07Z" fill="url(#paint0_linear_31443_100)"/>
<path d="M304.13 24.5599L300 20.43V20.28V20.13L304.13 16L304.22 16.05L309.11 18.83C310.51 19.62 310.51 20.92 309.11 21.72L304.22 24.4999L304.13 24.5599Z" fill="url(#paint1_linear_31443_100)"/>
<path d="M303.68 24.22L299.46 20L287 32.46C287.46 32.95 288.22 33.01 289.08 32.52L303.68 24.22Z" fill="url(#paint2_linear_31443_100)"/>
<path d="M303.69 15.6389L289.08 7.33887C288.22 6.84887 287.46 6.90888 287 7.39887L299.47 19.8588L303.69 15.6389Z" fill="url(#paint3_linear_31443_100)"/>
<path opacity="0.2" d="M303.59 24L289.07 32.25C288.26 32.71 287.53 32.68 287.07 32.26L287 32.33L287.07 32.4C287.54 32.82 288.26 32.85 289.07 32.39L303.68 24.09L303.59 24Z" fill="black"/>
<path opacity="0.12" d="M287.46 32.4C287.17 32.09 287 31.61 287 31V31.15C287 31.77 287.17 32.25 287.46 32.55L287.53 32.48L287.46 32.4Z" fill="black"/>
<path opacity="0.12" d="M308.99 21.3L304 24.1301L304.09 24.2201L308.98 21.44C309.68 21.04 310.03 20.52 310.03 20C309.98 20.47 309.63 20.94 308.99 21.3Z" fill="black"/>
<path opacity="0.25" d="M289.54 7.47394L309.04 18.554C309.67 18.914 310.03 19.374 310.09 19.854C310.09 19.334 309.74 18.804 309.04 18.414L289.54 7.33394C288.14 6.54394 287 7.20394 287 8.80395V8.95395C287 7.34394 288.15 6.68394 289.54 7.47394Z" fill="white"/>
<path d="M522.135 0.00013H421.535C421.168 0.00013 420.806 0.00013 420.44 0.00212999C420.134 0.00412999 419.83 0.00993997 419.521 0.01483C418.85 0.0227317 418.18 0.081806 417.517 0.191539C416.856 0.303662 416.215 0.515044 415.616 0.818537C415.018 1.1246 414.472 1.52229 413.998 1.99719C413.52 2.47076 413.122 3.01814 412.819 3.61828C412.515 4.21723 412.305 4.85905 412.194 5.52159C412.083 6.1833 412.023 6.85263 412.015 7.52359C412.006 7.83018 412.005 8.1378 412 8.44444V31.5586C412.005 31.8691 412.006 32.1699 412.015 32.4805C412.023 33.1514 412.083 33.8207 412.194 34.4824C412.304 35.1453 412.515 35.7875 412.819 36.3867C413.122 36.9849 413.52 37.5301 413.998 38.001C414.471 38.478 415.017 38.876 415.616 39.1797C416.215 39.484 416.855 39.6967 417.517 39.8105C418.18 39.9194 418.85 39.9785 419.521 39.9873C419.83 39.9941 420.134 39.998 420.44 39.998C420.806 40 421.168 40 421.535 40H522.135C522.494 40 522.859 40 523.219 39.998C523.523 39.998 523.836 39.9941 524.141 39.9873C524.811 39.9789 525.479 39.9198 526.141 39.8105C526.804 39.6958 527.448 39.4833 528.049 39.1797C528.647 38.8758 529.193 38.4779 529.666 38.001C530.142 37.5282 530.541 36.9835 530.848 36.3867C531.15 35.7871 531.358 35.145 531.467 34.4824C531.578 33.8207 531.64 33.1515 531.652 32.4805C531.656 32.1699 531.656 31.8691 531.656 31.5586C531.664 31.1953 531.664 30.834 531.664 30.4648V9.53623C531.664 9.17002 531.664 8.80674 531.656 8.44444C531.656 8.1378 531.656 7.83018 531.652 7.52355C531.64 6.85253 531.578 6.18335 531.467 5.52155C531.358 4.8594 531.149 4.21762 530.848 3.61824C530.23 2.41532 529.252 1.43615 528.049 0.818447C527.448 0.515696 526.804 0.304369 526.141 0.191449C525.48 0.0812325 524.811 0.0221377 524.141 0.01469C523.836 0.00980997 523.523 0.00394999 523.219 0.00199999C522.859 0 522.494 0 522.135 0V0.00013Z" fill="#A6A6A6"/>
<path d="M420.445 39.125C420.14 39.125 419.843 39.1211 419.541 39.1143C418.914 39.1062 418.29 39.0517 417.671 38.9512C417.095 38.852 416.537 38.6673 416.015 38.4033C415.498 38.1416 415.026 37.7983 414.618 37.3867C414.204 36.98 413.859 36.5083 413.597 35.9902C413.333 35.4688 413.149 34.9099 413.054 34.333C412.951 33.7132 412.896 33.0864 412.888 32.4581C412.881 32.2472 412.873 31.545 412.873 31.545V8.44445C412.873 8.44445 412.882 7.75304 412.888 7.54991C412.895 6.92259 412.951 6.29676 413.053 5.67784C413.149 5.09936 413.332 4.53886 413.597 4.01574C413.857 3.49806 414.2 3.02598 414.612 2.6178C415.023 2.20574 415.496 1.86072 416.014 1.59533C416.535 1.33221 417.092 1.14885 417.668 1.05139C418.288 0.949958 418.915 0.895118 419.543 0.887332L420.445 0.875122H523.214L524.127 0.887822C524.75 0.895221 525.371 0.949572 525.985 1.05041C526.566 1.1491 527.13 1.33374 527.656 1.59826C528.694 2.13311 529.539 2.97928 530.071 4.01819C530.332 4.53769 530.512 5.09362 530.606 5.6671C530.71 6.2911 530.768 6.92185 530.78 7.55431C530.783 7.83751 530.783 8.14171 530.783 8.44445C530.791 8.81944 530.791 9.17637 530.791 9.53623V30.4649C530.791 30.8282 530.791 31.1827 530.783 31.5401C530.783 31.8653 530.783 32.1632 530.779 32.4698C530.768 33.0909 530.71 33.7104 530.608 34.3232C530.515 34.9043 530.333 35.4676 530.068 35.9932C529.805 36.5057 529.462 36.9733 529.053 37.3789C528.644 37.7927 528.172 38.138 527.653 38.4014C527.128 38.6674 526.566 38.8528 525.985 38.9512C525.367 39.0522 524.742 39.1067 524.116 39.1143C523.823 39.1211 523.517 39.125 523.219 39.125L522.135 39.127L420.445 39.125Z" fill="black"/>
<path d="M436.769 20.3007C436.78 19.4661 437.001 18.6477 437.413 17.9217C437.825 17.1958 438.414 16.5858 439.125 16.1486C438.674 15.5035 438.078 14.9725 437.385 14.598C436.692 14.2234 435.921 14.0156 435.134 13.991C433.455 13.8147 431.827 14.9958 430.971 14.9958C430.099 14.9958 428.782 14.0085 427.363 14.0376C426.445 14.0673 425.551 14.3341 424.767 14.8122C423.983 15.2903 423.336 15.9632 422.89 16.7655C420.956 20.114 422.398 25.035 424.251 27.7417C425.178 29.067 426.261 30.5475 427.679 30.495C429.066 30.4375 429.584 29.6105 431.258 29.6105C432.917 29.6105 433.403 30.495 434.849 30.4616C436.338 30.4374 437.275 29.1304 438.17 27.7924C438.836 26.8481 439.348 25.8044 439.688 24.6999C438.823 24.3342 438.085 23.722 437.566 22.9397C437.047 22.1574 436.77 21.2396 436.769 20.3007Z" fill="white"/>
<path d="M434.037 12.2111C434.849 11.2369 435.249 9.98468 435.152 8.72046C433.912 8.85068 432.767 9.44323 431.944 10.3801C431.542 10.8377 431.234 11.3702 431.038 11.9469C430.842 12.5237 430.761 13.1335 430.8 13.7414C431.421 13.7478 432.034 13.6134 432.595 13.3483C433.155 13.0832 433.649 12.6944 434.037 12.2111Z" fill="white"/>
<path d="M454.302 27.1397H449.569L448.432 30.4962H446.427L450.911 18.0781H452.994L457.477 30.4962H455.438L454.302 27.1397ZM450.059 25.5909H453.811L451.962 20.1436H451.91L450.059 25.5909Z" fill="white"/>
<path d="M467.16 25.9698C467.16 28.7833 465.654 30.5909 463.381 30.5909C462.806 30.621 462.233 30.4884 461.729 30.2083C461.226 29.9282 460.811 29.5118 460.533 29.0069H460.49V33.4913H458.631V21.4425H460.43V22.9483H460.464C460.755 22.4459 461.177 22.0317 461.685 21.7498C462.192 21.468 462.767 21.329 463.347 21.3477C465.645 21.3477 467.16 23.1642 467.16 25.9698ZM465.25 25.9698C465.25 24.1368 464.302 22.9317 462.857 22.9317C461.437 22.9317 460.482 24.1622 460.482 25.9698C460.482 27.7941 461.437 29.0157 462.857 29.0157C464.302 29.0157 465.25 27.8194 465.25 25.9698Z" fill="white"/>
<path d="M477.124 25.9698C477.124 28.7833 475.619 30.5909 473.346 30.5909C472.771 30.621 472.198 30.4884 471.694 30.2083C471.19 29.9282 470.776 29.5118 470.498 29.0069H470.455V33.4913H468.596V21.4425H470.395V22.9483H470.429C470.72 22.4459 471.142 22.0317 471.649 21.7498C472.157 21.468 472.732 21.329 473.312 21.3477C475.61 21.3477 477.124 23.1641 477.124 25.9698ZM475.214 25.9698C475.214 24.1368 474.267 22.9317 472.822 22.9317C471.402 22.9317 470.447 24.1622 470.447 25.9698C470.447 27.7941 471.402 29.0157 472.822 29.0157C474.267 29.0157 475.214 27.8194 475.214 25.9698Z" fill="white"/>
<path d="M483.71 27.0362C483.848 28.2676 485.044 29.0761 486.679 29.0761C488.246 29.0761 489.373 28.2676 489.373 27.1572C489.373 26.1933 488.693 25.6162 487.084 25.2207L485.474 24.833C483.194 24.2822 482.135 23.2158 482.135 21.4853C482.135 19.3428 484.002 17.8711 486.654 17.8711C489.278 17.8711 491.077 19.3428 491.137 21.4853H489.261C489.149 20.2461 488.125 19.498 486.627 19.498C485.13 19.498 484.106 20.2549 484.106 21.3564C484.106 22.2344 484.76 22.751 486.361 23.1464L487.729 23.4824C490.277 24.0849 491.335 25.1084 491.335 26.9247C491.335 29.248 489.485 30.703 486.542 30.703C483.788 30.703 481.928 29.2822 481.808 27.0361L483.71 27.0362Z" fill="white"/>
<path d="M495.346 19.2999V21.4425H497.068V22.9142H495.346V27.9054C495.346 28.6808 495.691 29.0421 496.448 29.0421C496.652 29.0385 496.856 29.0242 497.059 28.9991V30.462C496.719 30.5256 496.373 30.5544 496.027 30.5479C494.194 30.5479 493.479 29.8594 493.479 28.1036V22.9142H492.163V21.4425H493.479V19.2999H495.346Z" fill="white"/>
<path d="M498.065 25.9699C498.065 23.1212 499.743 21.3312 502.359 21.3312C504.984 21.3312 506.654 23.1212 506.654 25.9699C506.654 28.8263 504.993 30.6085 502.359 30.6085C499.726 30.6085 498.065 28.8263 498.065 25.9699ZM504.76 25.9699C504.76 24.0157 503.865 22.8624 502.359 22.8624C500.853 22.8624 499.958 24.0245 499.958 25.9699C499.958 27.9318 500.853 29.0763 502.359 29.0763C503.865 29.0763 504.76 27.9318 504.76 25.9699Z" fill="white"/>
<path d="M508.186 21.4425H509.959V22.9835H510.002C510.121 22.5022 510.403 22.0769 510.8 21.779C511.197 21.4811 511.684 21.3288 512.179 21.3478C512.393 21.347 512.607 21.3703 512.816 21.4171V23.1554C512.546 23.0728 512.264 23.0348 511.981 23.0431C511.711 23.0321 511.442 23.0797 511.192 23.1826C510.942 23.2855 510.718 23.4413 510.534 23.6391C510.35 23.837 510.211 24.0724 510.126 24.3291C510.042 24.5857 510.014 24.8576 510.044 25.1261V30.4963H508.186V21.4425Z" fill="white"/>
<path d="M521.384 27.837C521.134 29.4805 519.534 30.6084 517.486 30.6084C514.852 30.6084 513.217 28.8438 513.217 26.0128C513.217 23.173 514.861 21.3312 517.408 21.3312C519.913 21.3312 521.488 23.0519 521.488 25.7969V26.4337H515.093V26.546C515.064 26.8792 515.105 27.2148 515.216 27.5307C515.326 27.8465 515.502 28.1353 515.732 28.3778C515.963 28.6204 516.242 28.8111 516.552 28.9374C516.861 29.0637 517.195 29.1227 517.529 29.1104C517.968 29.1515 518.409 29.0498 518.785 28.8204C519.162 28.5909 519.455 28.246 519.62 27.837H521.384ZM515.102 25.1348H519.628C519.645 24.8353 519.6 24.5354 519.495 24.2542C519.39 23.973 519.229 23.7165 519.02 23.5007C518.812 23.285 518.561 23.1146 518.283 23.0004C518.006 22.8862 517.708 22.8306 517.408 22.837C517.105 22.8352 516.805 22.8934 516.525 23.0081C516.245 23.1228 515.99 23.2919 515.776 23.5055C515.562 23.7192 515.392 23.9731 515.276 24.2528C515.16 24.5324 515.101 24.8322 515.102 25.1349V25.1348Z" fill="white"/>
<path d="M449.826 8.73114C450.216 8.70318 450.607 8.76204 450.971 8.90347C451.335 9.0449 451.663 9.26538 451.932 9.549C452.2 9.83262 452.403 10.1723 452.524 10.5436C452.646 10.9148 452.683 11.3084 452.634 11.6959C452.634 13.6022 451.604 14.6979 449.826 14.6979H447.671V8.73114H449.826ZM448.598 13.8541H449.723C450.001 13.8707 450.28 13.8251 450.538 13.7205C450.797 13.6158 451.029 13.4549 451.217 13.2493C451.406 13.0438 451.546 12.7988 451.628 12.5322C451.71 12.2655 451.731 11.984 451.69 11.7081C451.728 11.4333 451.705 11.1535 451.621 10.8888C451.538 10.6242 451.398 10.3812 451.21 10.1773C451.022 9.97333 450.791 9.81352 450.534 9.70928C450.277 9.60505 450 9.55897 449.723 9.57434H448.598V13.8541Z" fill="white"/>
<path d="M453.681 12.4444C453.652 12.1485 453.686 11.8499 453.78 11.5678C453.874 11.2858 454.026 11.0264 454.226 10.8065C454.426 10.5865 454.669 10.4107 454.941 10.2904C455.213 10.1702 455.507 10.108 455.804 10.108C456.101 10.108 456.395 10.1702 456.667 10.2904C456.939 10.4107 457.183 10.5865 457.383 10.8065C457.583 11.0264 457.734 11.2858 457.828 11.5678C457.922 11.8499 457.956 12.1485 457.928 12.4444C457.957 12.7406 457.923 13.0396 457.83 13.3221C457.736 13.6046 457.584 13.8644 457.384 14.0848C457.184 14.3052 456.94 14.4814 456.668 14.6019C456.396 14.7224 456.102 14.7847 455.804 14.7847C455.507 14.7847 455.212 14.7224 454.94 14.6019C454.668 14.4814 454.424 14.3052 454.224 14.0848C454.024 13.8644 453.872 13.6046 453.779 13.3221C453.685 13.0396 453.652 12.7406 453.681 12.4444ZM457.014 12.4444C457.014 11.4683 456.575 10.8975 455.806 10.8975C455.033 10.8975 454.599 11.4683 454.599 12.4444C454.599 13.4283 455.033 13.9947 455.806 13.9947C456.575 13.9946 457.014 13.4243 457.014 12.4444Z" fill="white"/>
<path d="M463.573 14.6979H462.651L461.721 11.3815H461.65L460.724 14.6979H459.811L458.569 10.1949H459.471L460.277 13.631H460.344L461.27 10.1949H462.122L463.048 13.631H463.118L463.921 10.1949H464.81L463.573 14.6979Z" fill="white"/>
<path d="M465.854 10.1949H466.709V10.9102H466.775C466.888 10.6533 467.078 10.4379 467.319 10.2941C467.56 10.1503 467.84 10.0852 468.119 10.1079C468.338 10.0915 468.558 10.1245 468.763 10.2046C468.968 10.2847 469.151 10.4098 469.301 10.5707C469.451 10.7315 469.562 10.924 469.628 11.1338C469.693 11.3436 469.71 11.5654 469.678 11.7828V14.6979H468.789V12.006C468.789 11.2823 468.475 10.9224 467.817 10.9224C467.669 10.9155 467.52 10.9408 467.382 10.9966C467.244 11.0525 467.12 11.1375 467.018 11.2459C466.915 11.3543 466.838 11.4835 466.79 11.6246C466.743 11.7657 466.726 11.9155 466.742 12.0636V14.6979H465.854V10.1949Z" fill="white"/>
<path d="M471.094 8.43713H471.982V14.6979H471.094V8.43713Z" fill="white"/>
<path d="M473.218 12.4444C473.189 12.1485 473.223 11.8499 473.317 11.5678C473.411 11.2857 473.563 11.0264 473.763 10.8064C473.963 10.5864 474.206 10.4106 474.478 10.2903C474.75 10.17 475.044 10.1079 475.342 10.1079C475.639 10.1079 475.933 10.17 476.205 10.2903C476.477 10.4106 476.72 10.5864 476.92 10.8064C477.12 11.0264 477.272 11.2857 477.366 11.5678C477.46 11.8499 477.494 12.1485 477.465 12.4444C477.494 12.7407 477.461 13.0396 477.367 13.3222C477.273 13.6047 477.122 13.8645 476.922 14.0849C476.722 14.3053 476.478 14.4815 476.206 14.602C475.933 14.7225 475.639 14.7848 475.342 14.7848C475.044 14.7848 474.75 14.7225 474.477 14.602C474.205 14.4815 473.961 14.3053 473.761 14.0849C473.561 13.8645 473.41 13.6047 473.316 13.3222C473.222 13.0396 473.189 12.7407 473.218 12.4444ZM476.551 12.4444C476.551 11.4683 476.112 10.8975 475.343 10.8975C474.57 10.8975 474.136 11.4683 474.136 12.4444C474.136 13.4283 474.57 13.9947 475.343 13.9947C476.112 13.9947 476.551 13.4244 476.551 12.4444Z" fill="white"/>
<path d="M478.401 13.4244C478.401 12.6138 479.004 12.1465 480.076 12.0801L481.295 12.0098V11.6211C481.295 11.1455 480.981 10.877 480.373 10.877C479.877 10.877 479.534 11.0591 479.435 11.3775H478.575C478.665 10.604 479.393 10.1079 480.415 10.1079C481.543 10.1079 482.18 10.6699 482.18 11.6211V14.6979H481.325V14.065H481.254C481.112 14.292 480.911 14.4771 480.674 14.6013C480.436 14.7255 480.17 14.7844 479.902 14.7721C479.713 14.7917 479.522 14.7716 479.341 14.7129C479.16 14.6542 478.994 14.5582 478.852 14.4313C478.711 14.3043 478.598 14.1491 478.52 13.9757C478.442 13.8022 478.402 13.6145 478.401 13.4244ZM481.295 13.0396V12.6631L480.196 12.7335C479.576 12.775 479.294 12.9859 479.294 13.3829C479.294 13.7882 479.646 14.024 480.129 14.024C480.271 14.0383 480.414 14.024 480.55 13.982C480.686 13.9399 480.812 13.8708 480.921 13.779C481.03 13.6872 481.119 13.5744 481.183 13.4473C481.248 13.3203 481.286 13.1817 481.295 13.0396Z" fill="white"/>
<path d="M483.348 12.4445C483.348 11.0216 484.08 10.1203 485.217 10.1203C485.499 10.1073 485.778 10.1747 486.023 10.3146C486.267 10.4545 486.467 10.6611 486.598 10.9103H486.665V8.43713H487.553V14.6979H486.702V13.9865H486.631C486.49 14.234 486.283 14.438 486.034 14.5765C485.785 14.715 485.502 14.7826 485.217 14.7721C484.072 14.7722 483.348 13.8708 483.348 12.4445ZM484.266 12.4445C484.266 13.3996 484.716 13.9743 485.469 13.9743C486.218 13.9743 486.681 13.3913 486.681 12.4484C486.681 11.5099 486.213 10.9186 485.469 10.9186C484.721 10.9186 484.266 11.4972 484.266 12.4445Z" fill="white"/>
<path d="M491.23 12.4444C491.202 12.1485 491.236 11.8499 491.329 11.5678C491.423 11.2858 491.575 11.0264 491.775 10.8065C491.975 10.5865 492.219 10.4107 492.49 10.2904C492.762 10.1702 493.056 10.108 493.353 10.108C493.651 10.108 493.945 10.1702 494.217 10.2904C494.488 10.4107 494.732 10.5865 494.932 10.8065C495.132 11.0264 495.284 11.2858 495.378 11.5678C495.471 11.8499 495.505 12.1485 495.477 12.4444C495.506 12.7406 495.472 13.0396 495.379 13.3221C495.285 13.6046 495.134 13.8644 494.934 14.0848C494.734 14.3052 494.49 14.4814 494.218 14.6019C493.945 14.7224 493.651 14.7847 493.353 14.7847C493.056 14.7847 492.762 14.7224 492.489 14.6019C492.217 14.4814 491.973 14.3052 491.773 14.0848C491.573 13.8644 491.422 13.6046 491.328 13.3221C491.235 13.0396 491.201 12.7406 491.23 12.4444ZM494.563 12.4444C494.563 11.4683 494.124 10.8975 493.355 10.8975C492.583 10.8975 492.148 11.4683 492.148 12.4444C492.148 13.4283 492.583 13.9947 493.355 13.9947C494.124 13.9946 494.563 13.4243 494.563 12.4444Z" fill="white"/>
<path d="M496.669 10.1949H497.525V10.9102H497.591C497.704 10.6533 497.894 10.4379 498.135 10.2941C498.376 10.1503 498.656 10.0852 498.935 10.1079C499.154 10.0915 499.374 10.1245 499.579 10.2046C499.783 10.2847 499.967 10.4098 500.117 10.5707C500.267 10.7315 500.378 10.924 500.444 11.1338C500.509 11.3436 500.526 11.5654 500.494 11.7828V14.6979H499.605V12.006C499.605 11.2823 499.291 10.9224 498.633 10.9224C498.485 10.9155 498.336 10.9408 498.198 10.9966C498.06 11.0525 497.936 11.1375 497.834 11.2459C497.731 11.3543 497.654 11.4835 497.606 11.6246C497.559 11.7657 497.542 11.9155 497.558 12.0636V14.6979H496.669V10.1949Z" fill="white"/>
<path d="M505.515 9.07385V10.2155H506.491V10.964H505.515V13.2794C505.515 13.7511 505.71 13.9576 506.152 13.9576C506.265 13.9573 506.378 13.9504 506.491 13.9371V14.6774C506.331 14.7059 506.169 14.7211 506.007 14.7228C505.019 14.7228 504.626 14.3751 504.626 13.507V10.964H503.911V10.2154H504.626V9.07385H505.515Z" fill="white"/>
<path d="M507.705 8.43713H508.585V10.9186H508.656C508.774 10.6593 508.969 10.4427 509.215 10.2983C509.46 10.154 509.745 10.0889 510.029 10.1119C510.247 10.1001 510.465 10.1365 510.667 10.2185C510.869 10.3006 511.051 10.4262 511.199 10.5866C511.347 10.7469 511.458 10.938 511.524 11.1461C511.59 11.3542 511.609 11.5743 511.58 11.7907V14.6979H510.69V12.0099C510.69 11.2906 510.355 10.9264 509.727 10.9264C509.574 10.9139 509.421 10.9349 509.277 10.9879C509.133 11.041 509.003 11.1248 508.895 11.2335C508.787 11.3423 508.704 11.4733 508.652 11.6174C508.6 11.7616 508.58 11.9153 508.593 12.068V14.6979H507.705V8.43713Z" fill="white"/>
<path d="M516.761 13.4821C516.641 13.8936 516.379 14.2496 516.022 14.4878C515.666 14.7259 515.236 14.8311 514.81 14.7848C514.513 14.7926 514.219 14.7358 513.946 14.6183C513.674 14.5008 513.43 14.3253 513.232 14.1042C513.034 13.8831 512.887 13.6215 512.8 13.3377C512.713 13.0538 512.689 12.7545 512.73 12.4606C512.691 12.1657 512.715 11.8657 512.801 11.5811C512.888 11.2964 513.034 11.0336 513.231 10.8105C513.428 10.5875 513.671 10.4093 513.942 10.2881C514.214 10.1669 514.509 10.1054 514.806 10.108C516.059 10.108 516.815 10.964 516.815 12.378V12.6881H513.635V12.7379C513.621 12.9032 513.642 13.0695 513.696 13.2263C513.75 13.383 513.837 13.5267 513.95 13.6482C514.062 13.7696 514.2 13.8662 514.352 13.9316C514.504 13.997 514.669 14.0298 514.834 14.0279C515.047 14.0535 515.262 14.0152 515.453 13.918C515.644 13.8208 515.801 13.669 515.906 13.482L516.761 13.4821ZM513.635 12.0309H515.91C515.921 11.8797 515.9 11.7279 515.849 11.5852C515.798 11.4425 515.718 11.312 515.614 11.2022C515.509 11.0923 515.383 11.0055 515.243 10.9473C515.103 10.8891 514.953 10.8609 514.801 10.8643C514.648 10.8624 514.495 10.8913 514.353 10.9492C514.21 11.0072 514.081 11.093 513.972 11.2017C513.864 11.3105 513.778 11.4398 513.72 11.5822C513.662 11.7246 513.633 11.8772 513.635 12.0309Z" fill="white"/>
<path d="M257 0C245.96 0 237 8.96 237 20C237 31.04 245.96 40 257 40C268.04 40 277 31.04 277 20C277 8.96 268.04 0 257 0ZM257 6C260.32 6 263 8.68 263 12C263 15.32 260.32 18 257 18C253.68 18 251 15.32 251 12C251 8.68 253.68 6 257 6ZM257 34.4C252 34.4 247.58 31.84 245 27.96C245.06 23.98 253 21.8 257 21.8C260.98 21.8 268.94 23.98 269 27.96C266.42 31.84 262 34.4 257 34.4Z" fill="white"/>
<path d="M149.167 98.3333V115H140.833V98.3333H149.167ZM99.1667 98.3333V115H95C92.7083 115 90.8333 113.125 90.8333 110.833V98.3333H99.1667ZM120 44.1666C99.2917 44.1666 82.5 60.9583 82.5 81.6666V110.833C82.5 117.75 88.0833 123.333 95 123.333H107.5V90H90.8333V81.6666C90.8333 65.5416 103.875 52.5 120 52.5C136.125 52.5 149.167 65.5416 149.167 81.6666V90H132.5V123.333H149.167V127.5H120V135.833H145C151.917 135.833 157.5 130.25 157.5 123.333V81.6666C157.5 60.9583 140.708 44.1666 120 44.1666Z" fill="#3077C6"/>
<path d="M210.5 60.6667V89.8334H169.542L164.667 94.7084V60.6667H210.5ZM214.667 52.3334H160.5C158.208 52.3334 156.333 54.2084 156.333 56.5V114.833L173 98.1667H214.667C216.958 98.1667 218.833 96.2917 218.833 94V56.5C218.833 54.2084 216.958 52.3334 214.667 52.3334ZM235.5 69H227.167V106.5H173V114.833C173 117.125 174.875 119 177.167 119H223L239.667 135.667V73.1667C239.667 70.875 237.792 69 235.5 69Z" fill="#3077C6"/>
<path d="M256.667 69.3334H331.667V61H256.667C252.083 61 248.333 64.75 248.333 69.3334V115.167H240V127.667H298.333V115.167H256.667V69.3334ZM335.833 77.6667H310.833C308.542 77.6667 306.667 79.5417 306.667 81.8334V123.5C306.667 125.792 308.542 127.667 310.833 127.667H335.833C338.125 127.667 340 125.792 340 123.5V81.8334C340 79.5417 338.125 77.6667 335.833 77.6667ZM331.667 115.167H315V86H331.667V115.167Z" fill="#3077C6"/>
<path d="M418.5 73.3333H392.208L396.167 54.2916L396.292 52.9583C396.292 51.25 395.583 49.6666 394.458 48.5416L390.042 44.1666L362.625 71.625C361.083 73.125 360.167 75.2083 360.167 77.5V119.167C360.167 123.75 363.917 127.5 368.5 127.5H406C409.458 127.5 412.417 125.417 413.667 122.417L426.25 93.0416C426.625 92.0833 426.833 91.0833 426.833 90V81.6666C426.833 77.0833 423.083 73.3333 418.5 73.3333ZM418.5 90L406 119.167H368.5V77.5L386.583 59.4166L381.958 81.6666H418.5V90ZM335.167 77.5H351.833V127.5H335.167V77.5Z" fill="#3077C6"/>
<defs>
<linearGradient id="paint0_linear_31443_100" x1="298.82" y1="8.2397" x2="282.037" y2="25.0222" gradientUnits="userSpaceOnUse">
<stop stop-color="#00A0FF"/>
<stop offset="0.00657445" stop-color="#00A1FF"/>
<stop offset="0.2601" stop-color="#00BEFF"/>
<stop offset="0.5122" stop-color="#00D2FF"/>
<stop offset="0.7604" stop-color="#00DFFF"/>
<stop offset="1" stop-color="#00E3FF"/>
</linearGradient>
<linearGradient id="paint1_linear_31443_100" x1="310.934" y1="20.2814" x2="286.738" y2="20.2814" gradientUnits="userSpaceOnUse">
<stop stop-color="#FFE000"/>
<stop offset="0.4087" stop-color="#FFBD00"/>
<stop offset="0.7754" stop-color="#FFA500"/>
<stop offset="1" stop-color="#FF9C00"/>
</linearGradient>
<linearGradient id="paint2_linear_31443_100" x1="301.387" y1="22.2961" x2="278.629" y2="45.0544" gradientUnits="userSpaceOnUse">
<stop stop-color="#FF3A44"/>
<stop offset="1" stop-color="#C31162"/>
</linearGradient>
<linearGradient id="paint3_linear_31443_100" x1="283.867" y1="0.0350896" x2="294.03" y2="10.1976" gradientUnits="userSpaceOnUse">
<stop stop-color="#32A071"/>
<stop offset="0.0685" stop-color="#2DA771"/>
<stop offset="0.4762" stop-color="#15CF74"/>
<stop offset="0.8009" stop-color="#06E775"/>
<stop offset="1" stop-color="#00F076"/>
</linearGradient>
</defs>
</svg>
